<?xml version="1.0" encoding="UTF-8"?><svg id="Layer_2" xmlns="http://www.w3.org/2000/svg" viewBox="0 0 232.76 119.3"><defs><style>.cls-1{fill:#fcee21;}</style></defs><g id="Layer_1-2"><path class="cls-1" d="m1.13,92.95l-.71-23.47c5.52,11.14,14.3,25.17,20.67,25.17,1.98,0,3.96-1.31,3.96-4.33,0-3.93-3.26-8.52-8.21-14.95l-9.49-12.06C2.69,57.16,0,52.18,0,46.28c0-10.36,8.35-17.04,20.81-17.04,7.5,0,14.44,2.23,17.27,4.46l2.41,22.16c-6.09-9.96-13.31-23.73-19.11-23.73-1.84,0-3.82,1.05-3.82,4.72s1.98,6.95,6.09,12.46l10.34,13.11c4.96,6.29,9.63,12.19,9.63,18.88,0,10.75-11.47,16.13-23.64,16.13-8.07,0-14.58-2.23-18.83-4.46Z"/><path class="cls-1" d="m51.96,82.99V17.44c0-7.74-2.69-11.41-4.11-13.11L72.49,0v82.99c0,7.74,2.69,11.41,4.11,13.11h-28.74c1.42-1.7,4.11-5.38,4.11-13.11Zm20.53-20.71l4.96-5.38c10.05-10.88,10.48-13.5,10.48-16.13,0-5.24-4.11-9.18-7.93-10.1v-.13h30.44v.13c-10.48,4.85-15.43,8.78-22.65,17.57l-.42.66,14.16,29.37c6.23,12.72,9.77,16.26,12.88,17.83h-26.34l-15.57-33.82Z"/><path class="cls-1" d="m113.97,117.21v-14.81c3.12,1.05,6.51,1.31,9.2,1.31,6.65,0,13.45-1.7,13.45-9.05,0-4.72-2.83-11.41-5.66-19.01l-10.9-29.24c-3.4-9.18-5.95-13.5-9.91-15.86h31.86c-3.96,2.36-3.82,6.69-.85,15.86l6.65,20.98,6.65-20.98c2.83-9.18,1.98-13.5-1.56-15.86h15.43c-3.96,2.36-6.65,6.69-9.91,15.86l-16.99,47.07c-3.11,8.78-8.92,25.83-20.95,25.83-3.4,0-5.95-1.31-6.51-2.1Z"/><path class="cls-1" d="m208.13,82.99v-32.12c0-5.9-.99-9.7-5.95-9.7-3.54,0-6.65,1.97-7.79,2.75v39.07c0,7.74,2.69,11.41,4.11,13.11h-28.74c1.42-1.7,4.11-5.38,4.11-13.11v-36.71c0-7.74-2.69-11.41-4.11-13.11l24.64-3.93v12.19c4.81-4.85,13.45-12.19,22.37-12.19,7.79,0,11.89,5.51,11.89,17.17v36.58c0,7.74,2.69,11.41,4.11,13.11h-28.74c1.42-1.7,4.11-5.38,4.11-13.11Z"/></g></svg>